HIERARCHY
ROOT Root
{
	OFFSET 0.00000 0.00000 0.00000
	CHANNELS 6 Xposition Yposition Zposition Zrotation Xrotation Yrotation
	JOINT Hips
	{
		OFFSET 0 0 0	
		CHANNELS 3 Zrotation Xrotation Yrotation
		JOINT Spine
		{
			OFFSET 0 4 0	
			CHANNELS 3 Zrotation Xrotation Yrotation
			JOINT Spine1
			{
				OFFSET 0 19.4 0	
				CHANNELS 3 Zrotation Xrotation Yrotation
				JOINT Spine2
				{
					OFFSET 0 16.6 0	
					CHANNELS 3 Zrotation Xrotation Yrotation
					JOINT LeftCollar
					{
						OFFSET 0 10 0	
						CHANNELS 3 Zrotation Xrotation Yrotation
						JOINT LeftArm
						{
							OFFSET 15.6 -2 3	
							CHANNELS 3 Zrotation Xrotation Yrotation
							JOINT LeftForeArm
							{
								OFFSET 3.5 -27 -1	
								CHANNELS 3 Zrotation Xrotation Yrotation
								JOINT LeftHand
								{
									OFFSET 1 -27 1	
									CHANNELS 3 Zrotation Xrotation Yrotation
									End Site
									{
										OFFSET 0 -15 0
									}
								}
							}
						}
					}
					JOINT RightCollar
					{
						OFFSET 0 10 0	
						CHANNELS 3 Zrotation Xrotation Yrotation
						JOINT RightArm
						{
							OFFSET -15.6 -2 3	
							CHANNELS 3 Zrotation Xrotation Yrotation
							JOINT RightForeArm
							{
								OFFSET -3.5 -27 -1	
								CHANNELS 3 Zrotation Xrotation Yrotation
								JOINT RightHand
								{
									OFFSET -1 -27 1	
									CHANNELS 3 Zrotation Xrotation Yrotation
									End Site
									{
										OFFSET 0 -15 0
									}
								}
							}
						}
					}
					JOINT Neck
					{
						OFFSET 0 10 0	
						CHANNELS 3 Zrotation Xrotation Yrotation
						JOINT Head
						{
							OFFSET 0 12.7 3	
							CHANNELS 3 Zrotation Xrotation Yrotation
							End Site
							{
								OFFSET 0 12.7 3
							}
						}
					}
				}
			}
		}
	}
	JOINT LeftHip
	{
		OFFSET 0 0 0	
		CHANNELS 3 Zrotation Xrotation Yrotation
		JOINT LeftUpLeg
		{
			OFFSET 8.8 -6 0	
			CHANNELS 3 Zrotation Xrotation Yrotation
			JOINT LeftLeg
			{
				OFFSET 0 -39 2	
				CHANNELS 3 Zrotation Xrotation Yrotation
				JOINT LeftFoot
				{
					OFFSET 0 -43 -2	
					CHANNELS 3 Zrotation Xrotation Yrotation
					JOINT LeftFootFront
					{
						OFFSET 0 -7 8.5	
						CHANNELS 3 Zrotation Xrotation Yrotation
						End Site
						{
							OFFSET 0 -0.5 9
						}
					}
				}
				JOINT LeftHeel
				{
					OFFSET 0 -43 -2	
					CHANNELS 3 Zrotation Xrotation Yrotation
					End Site
					{
						OFFSET 0 -7.5 -5
					}
				}
			}
		}
	}
	JOINT RightHip
	{
		OFFSET 0 0 0	
		CHANNELS 3 Zrotation Xrotation Yrotation
		JOINT RightUpLeg
		{
			OFFSET -8.8 -6 0	
			CHANNELS 3 Zrotation Xrotation Yrotation
			JOINT RightLeg
			{
				OFFSET 0 -39 2	
				CHANNELS 3 Zrotation Xrotation Yrotation
				JOINT RightFoot
				{
					OFFSET 0 -43 -2	
					CHANNELS 3 Zrotation Xrotation Yrotation
					JOINT RightFootFront
					{
						OFFSET 0 -7 8.5	
						CHANNELS 3 Zrotation Xrotation Yrotation
						End Site
						{
							OFFSET 0 -0.5 9
						}
					}
				}
				JOINT RightHeel
				{
					OFFSET 0 -43 -2	
					CHANNELS 3 Zrotation Xrotation Yrotation
					End Site
					{
						OFFSET 0 -7.5 -5
					}
				}
			}
		}
	}
}
MOTION
Frames: 13
Frame Time: 0.05
0 95.869 0 -0 0 -0 0.011065 -0.82703 9.909 0.80138 1.2619 2.0639 0.80138 1.2619 2.0639 0.6762 1.0581 1.7348 -0 0 -0 -1.304 -3.0636 0.76768 -8.6518 0.55003 26.213 -0 0 1.0339e-07 -0 0 -0 -0.91283 -3.0064 -6.0012 -0.61741 0.097573 -2.1928 0 0 -4.1542e-07 -0 0 -0 -0 0 -0 0.011065 -0.82703 9.909 0.7105 -0.00096909 3.3806 0.98503 2.3464 -2.1344 -0 0 -0 -1.0672e-07 -4.0378e-17 4.3356e-08 -0 0 -0 0.011065 -0.82703 9.909 -0.1708 -1.1327 4.9167 3.7755 0.024707 -17.045 -0 0 -0 0 0 -8.6711e-08 -0 0 -0 
0 95.868 0 -0 0 -0 0.019162 -0.85261 9.8888 0.79589 1.2513 2.071 0.79589 1.2513 2.071 0.67157 1.0492 1.7407 -0 0 -0 -1.2909 -3.0693 0.69954 -8.6047 0.58142 26.283 -0.030768 0.037229 0.0064007 -0 0 -0 -0.89531 -2.9977 -5.9758 -0.59068 0.070163 -2.237 -0.036043 0.073753 0.019493 -0 0 -0 -0 0 -0 0.019162 -0.85261 9.8888 0.69526 0.019428 3.4113 0.98722 2.358 -2.1527 -0 0 -0 -0 0 1.6675e-09 -0 0 -0 0.019162 -0.85261 9.8888 -0.18908 -1.1152 4.9128 3.8058 -0.00032123 -17.028 -0 0 -0 0 0 -5.6696e-08 -0 0 -0 
0 95.868 0 -0 0 -0 0.022943 -0.86817 9.8838 0.7917 1.2379 2.0589 0.7917 1.2379 2.0589 0.66801 1.0379 1.7306 -0 0 -0 -1.2783 -3.0662 0.70622 -8.562 0.60903 26.311 -0.027394 0.032288 0.011519 -0 0 -0 -0.87647 -2.9928 -5.9485 -0.57286 0.046685 -2.2441 -0.028255 0.070202 0.019965 -0 0 -0 -0 0 -0 0.022943 -0.86817 9.8838 0.68044 0.027644 3.4271 0.99274 2.3722 -2.1743 -0 0 -0 0 0 -1.7009e-07 -0 0 -0 0.022943 -0.86817 9.8838 -0.20137 -1.1127 4.9022 3.7874 0.031382 -17.022 -0 0 -0 0 0 -6.3366e-08 -0 0 -0 
0 95.868 0 -0 0 -0 0.029398 -0.88221 9.8852 0.78561 1.2211 2.0519 0.78561 1.2211 2.0519 0.66284 1.0238 1.7247 -0 0 -0 -1.2658 -3.0485 0.71369 -8.5367 0.64197 26.305 -0.012912 0.015745 0.02431 -0 0 -0 -0.87277 -2.9828 -5.9773 -0.55986 0.048828 -2.2202 -0.0053271 0.049931 0.02349 -0 0 -0 -0 0 -0 0.029398 -0.88221 9.8852 0.66126 0.025985 3.4345 1.0047 2.3966 -2.2011 -0 0 -0 -0 0 3.5352e-07 -0 0 -0 0.029398 -0.88221 9.8852 -0.21138 -1.115 4.8954 3.7649 0.073351 -17.024 -0 0 -0 0 0 -9.0046e-08 -0 0 -0 
0 95.867 0 -0 0 -0 0.041058 -0.89759 9.884 0.77014 1.1992 2.0487 0.77014 1.1992 2.0487 0.64979 1.0055 1.7219 -0 0 -0 -1.2424 -3.0126 0.72487 -8.5238 0.6758 26.292 0.0077599 0.0032174 0.018399 -0 0 -0 -0.85215 -2.9647 -6.0085 -0.5494 0.082744 -2.2055 0.0029679 0.026379 0.027736 -0 0 -0 -0 0 -0 0.041058 -0.89759 9.884 0.64122 0.0095824 3.4439 1.0203 2.4366 -2.2277 -0 0 -0 -0 0 3.8853e-07 -0 0 -0 0.041058 -0.89759 9.884 -0.22366 -1.1104 4.8877 3.7389 0.10858 -17.019 -0 0 -0 -0 0 6.3366e-08 -0 0 -0 
0 95.867 0 -0 0 -0 0.058088 -0.92307 9.8776 0.75708 1.1973 2.0558 0.75708 1.1973 2.0558 0.63882 1.0039 1.7279 -0 0 -0 -1.2329 -3.0064 0.74187 -8.5324 0.70106 26.259 0.026383 -0.0074089 0.0072463 -0 0 -0 -0.86913 -3.0026 -6.1019 -0.52757 0.15163 -2.1259 0.014296 0.0053965 -0.0012859 -0 0 -0 -0 0 -0 0.058088 -0.92307 9.8776 0.60767 0.0033025 3.464 1.0516 2.4925 -2.2632 -0 0 -0 -0 0 2.7514e-07 -0 0 -0 0.058088 -0.92307 9.8776 -0.24149 -1.0967 4.8852 3.7302 0.082384 -17.017 -0 0 -0 0 0 -1.0339e-07 -0 0 -0 
0 95.867 0 -0 0 -0 0.072567 -0.94756 9.8676 0.73923 1.1861 2.0701 0.73923 1.1861 2.0701 0.62382 0.99455 1.7399 -0 0 -0 -1.2059 -2.9741 0.76072 -8.538 0.71463 26.204 0.028716 0.0049236 0.0096899 -0 0 -0 -0.8448 -2.9619 -6.1355 -0.53595 0.18464 -2.1007 0.026943 -0.014749 -0.021796 -0 0 -0 -0 0 -0 0.072567 -0.94756 9.8676 0.57732 -0.0064002 3.4784 1.0752 2.5716 -2.285 -0 0 -0 -1.061e-07 -0.10279 6.986e-07 -0 0 -0 0.072567 -0.94756 9.8676 -0.26503 -1.0929 4.883 3.7266 0.12973 -17.017 -0 0 -0 0 0 -4.3356e-08 -0 0 -0 
0 95.867 0 -0 0 -0 0.084164 -0.97121 9.8539 0.73324 1.1813 2.0752 0.73324 1.1813 2.0752 0.61879 0.9905 1.7441 -0 0 -0 -1.2082 -2.9556 0.82927 -8.5321 0.71864 26.126 0.020728 0.019017 0.012587 -0 0 -0 -0.83953 -2.9251 -6.1213 -0.56323 0.21759 -2.1042 0.035546 -0.028805 -0.011669 -0 0 -0 -0 0 -0 0.084164 -0.97121 9.8539 0.54889 -0.025919 3.4949 1.0887 2.6557 -2.3092 -0 0 -0 1.0707e-07 -0.14402 2.7694e-07 -0 0 -0 0.084164 -0.97121 9.8539 -0.28156 -1.094 4.8783 3.7386 0.19775 -17.009 -0 0 -0 0 0 -1.6675e-08 -0 0 -0 
0 95.868 0 -0 0 -0 0.098066 -0.98694 9.83 0.72544 1.1852 2.0869 0.72544 1.1852 2.0869 0.61226 0.99378 1.7539 -0 0 -0 -1.2319 -2.9605 0.8407 -8.4988 0.70463 26.084 0.014109 0.024952 0.021616 -0 0 -0 -0.83359 -2.9167 -6.136 -0.58007 0.23669 -2.1094 0.022726 -0.019145 0.010578 -0 0 -0 -0 0 -0 0.098066 -0.98694 9.83 0.51756 -0.040008 3.5303 1.1116 2.724 -2.3418 -0 0 -0 1.029e-09 -0.18131 6.5034e-07 -0 0 -0 0.098066 -0.98694 9.83 -0.30139 -1.1071 4.8828 3.7486 0.26977 -17.005 -0 0 -0 0 0 -7.8374e-08 -0 0 -0 
0 95.87 0 -0 0 -0 0.10821 -1.0051 9.7975 0.71905 1.1893 2.1016 0.71905 1.1893 2.1016 0.60693 0.99726 1.7663 -0 0 -0 -1.2366 -2.9537 0.82454 -8.483 0.67981 26.086 0.010764 0.0226 0.0038123 -0 0 -0 -0.82254 -2.8982 -6.1806 -0.58598 0.2321 -2.1023 0.0069693 -0.0058159 0.028097 -0 0 -0 -0 0 -0 0.10821 -1.0051 9.7975 0.49023 -0.057668 3.5668 1.136 2.8002 -2.3735 -0 0 -0 -1.0744e-07 -0.22117 -3.704e-07 -0 0 -0 0.10821 -1.0051 9.7975 -0.32224 -1.1145 4.8902 3.7589 0.33483 -16.99 -0 0 -0 0 0 -9.0046e-08 -0 0 -0 
0 95.871 0 -0 0 -0 0.10956 -1.0392 9.7631 0.71062 1.2044 2.1214 0.71062 1.2044 2.1214 0.59991 1.0099 1.7829 -0 0 -0 -1.2297 -2.9546 0.80755 -8.4607 0.66185 26.103 0.0021117 0.0097225 -0.023817 -0 0 -0 -0.79701 -2.8847 -6.2439 -0.58491 0.21811 -2.0925 0.0029956 -0.0096409 0.031577 -0 0 -0 -0 0 -0 0.10956 -1.0392 9.7631 0.47743 -0.06718 3.6035 1.1521 2.8945 -2.4131 -0 0 -0 1.3238e-09 -0.27483 5.5196e-07 -0 0 -0 0.10956 -1.0392 9.7631 -0.34367 -1.1156 4.8793 3.7975 0.40339 -16.953 -0 0 -0 0 0 -8.5044e-08 -0 0 -0 
0 95.874 0 -0 0 -0 0.11233 -1.082 9.7289 0.7139 1.2261 2.1247 0.7139 1.2261 2.1247 0.60272 1.0281 1.7857 -0 0 -0 -1.2441 -2.9523 0.81606 -8.4451 0.6542 26.136 -0.012735 -0.010327 -0.021306 -0 0 -0 -0.81717 -2.8612 -6.2472 -0.57325 0.19822 -2.0896 0.0082996 -0.019728 0.023246 -0 0 -0 -0 0 -0 0.11233 -1.082 9.7289 0.4653 -0.062255 3.6454 1.1743 2.9815 -2.4614 -0 0 -0 -1.073e-07 -0.32566 -2.0374e-07 -0 0 -0 0.11233 -1.082 9.7289 -0.345 -1.0938 4.897 3.7928 0.43995 -16.946 -0 0 -0 0 0 -3.8353e-08 -0 0 -0 
0 95.876 0 -0 0 -0 0.11122 -1.1272 9.6979 0.71378 1.2469 2.1256 0.71378 1.2469 2.1256 0.60268 1.0456 1.7865 -0 0 -0 -1.2299 -2.933 0.82508 -8.4513 0.66072 26.172 -0.018619 -0.039141 -0.022813 -0 0 -0 -0.83577 -2.819 -6.2497 -0.56384 0.18687 -2.0838 0.025752 -0.041731 0.022509 -0 0 -0 -0 0 -0 0.11122 -1.1272 9.6979 0.46173 -0.043582 3.6892 1.1947 3.0363 -2.5046 -0 0 -0 -2.4236e-09 -0.35663 -7.7875e-07 -0 0 -0 0.11122 -1.1272 9.6979 -0.33812 -1.0773 4.9079 3.8006 0.48896 -16.931 -0 0 -0 -0 0 7.5039e-08 -0 0 -0 
